<mxfile host="app.diagrams.net" modified="2023-07-01T07:35:52.210Z" agent="Mozilla/5.0 (Windows NT 10.0; Win64; x64) AppleWebKit/537.36 (KHTML, like Gecko) Chrome/113.0.0.0 Safari/537.36 OPR/99.0.0.0 (Edition Yx GX)" version="21.5.2" etag="wg-sw2TvS6da-0tl9x4L" type="github">
  <diagram name="Страница 1" id="BJXS8dNOKa5IQMZf3Sow">
    <mxGraphModel>
      <root>
        <mxCell id="0" />
        <mxCell id="1" parent="0" />
      </root>
    </mxGraphModel>
  </diagram>
</mxfile>
